<svg xmlns="http://www.w3.org/2000/svg" width="18" height="24.247" viewBox="0 0 18 24.247">
    <path d="m19.413 19.338-.059-.109.03-.041.03-.041a6.968 6.968 0 0 0 1.482-.811 2.386 2.386 0 0 0 .892-1.421l.111-.5V3.506a1.943 1.943 0 0 0-.283-.964 3.709 3.709 0 0 0-.707-.9 4.061 4.061 0 0 0-.946-.662 2.253 2.253 0 0 0-1-.26H9.5a2.289 2.289 0 0 0-.977.246 4.054 4.054 0 0 0-.961.636 3.529 3.529 0 0 0-.72.866 1.9 1.9 0 0 0-.283.956v13.1a1.658 1.658 0 0 0 .169.689 3.379 3.379 0 0 0 .424.673 4.306 4.306 0 0 0 .553.582 3.746 3.746 0 0 0 .579.427c.091.037.259.1.5.168s.341.127.323.162l-3.881 5.742h2.259l2.827-4h7.8l2.824 4h2.289zM11.98 1.822a.436.436 0 0 1 .141-.291.389.389 0 0 1 .282-.149h3.617a.594.594 0 0 1 .227.108c.111.074.168.147.168.221v1.351a.311.311 0 0 1-.14.248.435.435 0 0 1-.254.114h-3.644l-.115-.088a1.025 1.025 0 0 1-.183-.152.274.274 0 0 1-.1-.2zM8.334 5.6a1.248 1.248 0 0 1 .128-.539 2.115 2.115 0 0 1 .325-.483 1.628 1.628 0 0 1 .465-.356 1.193 1.193 0 0 1 .553-.139h8.789a1.331 1.331 0 0 1 .506.108 1.779 1.779 0 0 1 .807.72.915.915 0 0 1 .125.467v2.927a.916.916 0 0 1-.14.481 1.5 1.5 0 0 1-.367.418 2.124 2.124 0 0 1-.481.285 1.189 1.189 0 0 1-.507.111H9.862l-.143-.025a.869.869 0 0 1-.17-.057 1.44 1.44 0 0 1-.846-.5 1.338 1.338 0 0 1-.368-.909V5.6zM10.95 17a1.475 1.475 0 0 1-1.088.441A1.388 1.388 0 0 1 8.8 17a1.528 1.528 0 0 1-.409-1.078 1.376 1.376 0 0 1 .425-1 1.412 1.412 0 0 1 1.046-.43 1.576 1.576 0 0 1 1.088.4 1.374 1.374 0 0 1 .438 1.065A1.436 1.436 0 0 1 10.95 17zm6.471 0a1.477 1.477 0 0 1-.439-1.078 1.3 1.3 0 0 1 .466-1.036 1.642 1.642 0 0 1 1.09-.4 1.437 1.437 0 0 1 1.469 1.435A1.5 1.5 0 0 1 19.582 17a1.43 1.43 0 0 1-1.076.441A1.468 1.468 0 0 1 17.42 17z" transform="translate(-5.226 -.72)" fill="white"></path>
</svg>